<svg width="210mm" height="1e3mm" version="1.1" viewBox="0 0 210 1e3" xmlns="http://www.w3.org/2000/svg"><g><g><path d="m-0.6117 47s-1.915-15.54 2.02-23.11c4.168-8.021 14.63-16.24 14.63-16.24s-10.75 21.04-3.422 40.17c0.9418 2.458-7.989 178.2-11.53 177.4s-1.693-178.2-1.693-178.2z"/><path d="m10.37 63.89s-1.915-15.54 2.02-23.11c4.168-8.021 11.17-16.63 11.17-16.63s-5.125 20.53 0.029 40.55c1.313 5.099-13.22-0.8148-13.22-0.8148z"/><path d="m21.24 74.13s-1.915-13.88 2.02-21.45c4.168-8.021 10.79-10.87 10.79-10.87s10.73 16.95 0.4131 33.14c-2.83 4.44-13.22-0.8147-13.22-0.8147z"/><path d="m32.72 81.74s-1.915-13.88 2.02-21.45c4.168-8.021 10.79-10.87 10.79-10.87s10.73 16.95 0.413 33.14c-2.83 4.44-13.22-0.8148-13.22-0.8148z"/><path d="m50.41 102.8s-6.904-5.498-1.534-29.92c5.37-24.42 19.82-31.84 19.82-31.84s-7.671 30.43-3.452 37.72 0.7671 18.16 0.7671 18.16z"/><path d="m63.54 97.93s1.116-29.5 12.3-40.68c0 0 4.159 3.616 9.312 30.74 5.321 28-21.61 9.945-21.61 9.945z"/><path d="m82.63 94.6s-3.808-23.26 11.35-38.16c0 0 11.05 6.153 12.58 12.93 1.534 6.776 5.733 39.04 5.733 39.04z"/><path d="m211.9 47s1.915-15.54-2.02-23.11c-4.168-8.021-14.63-16.24-14.63-16.24s10.75 21.04 3.423 40.17c-0.2355 0.6146-23.79 12.83-47.12 30.65-11.66 8.915-43.86 20.21-71.76 13.59-24.8-5.886-70.96-43.62-70.61-32.07 0.7036 23.09-18.91 255.7-18.91 255.7 47.89 38.65 241.7 114.5 241-83.8-0.011-3.635-19.41-184.8-19.41-184.8z"/><path d="m200.9 63.89s1.915-15.54-2.02-23.11c-4.168-8.021-11.17-16.63-11.17-16.63s5.125 20.53-0.03 40.55c-1.313 5.099 13.22-0.8148 13.22-0.8148z"/><path d="m190.1 74.13s1.915-13.88-2.02-21.45c-4.168-8.021-10.79-10.87-10.79-10.87s-10.73 16.95-0.4131 33.14c2.83 4.44 13.22-0.8147 13.22-0.8147z"/><path d="m178.6 81.74s1.915-13.88-2.02-21.45c-4.168-8.021-10.79-10.87-10.79-10.87s-10.73 16.95-0.413 33.14c2.83 4.44 13.22-0.8148 13.22-0.8148z"/><path d="m160.9 102.8s6.904-5.498 1.534-29.92c-5.37-24.42-19.82-31.84-19.82-31.84s7.671 30.43 3.452 37.72-0.7671 18.16-0.7671 18.16z"/><path d="m147.7 97.93s-1.116-29.5-12.3-40.68c0 0-4.159 3.616-9.312 30.74-5.321 28 21.61 9.945 21.61 9.945z"/><path d="m128.7 94.6s3.808-23.26-11.35-38.16c0 0-9.258 4.874-10.79 11.65-1.534 6.776-0.8746 34.95-0.8746 34.95z"/></g><rect x="-707.2" y="114" width="418" height="1169" fill="#f00"/><path d="m-499.1 52.87s-8.219-17.2-66.58-16.4c-64.34 0.8752-68.19 95.44-68.19 95.44l260.8-1.134-0.9774-72.82s-1.497-21.75-55.71-21.62c-54.22 0.127-69.34 16.53-69.34 16.53z" fill="#f00"/><rect x="-21.38" y="145.4" width="322.9" height="994.2"/></g></svg>
