<?xml version="1.0" encoding="UTF-8" standalone="no"?>
<svg
   xmlns:dc="http://purl.org/dc/elements/1.1/"
   xmlns:cc="http://creativecommons.org/ns#"
   xmlns:rdf="http://www.w3.org/1999/02/22-rdf-syntax-ns#"
   xmlns:svg="http://www.w3.org/2000/svg"
   xmlns="http://www.w3.org/2000/svg"
   xmlns:sodipodi="http://sodipodi.sourceforge.net/DTD/sodipodi-0.dtd"
   xmlns:inkscape="http://www.inkscape.org/namespaces/inkscape"
   width="210mm"
   height="1000mm"
   viewBox="0 0 210 1000"
   version="1.1"
   id="svg8"
   inkscape:version="1.0.1 (3bc2e813f5, 2020-09-07)"
   sodipodi:docname="teeth.svg">
  <defs
     id="defs2" />
  <sodipodi:namedview
     id="base"
     pagecolor="#ffffff"
     bordercolor="#666666"
     borderopacity="1.0"
     inkscape:pageopacity="0.0"
     inkscape:pageshadow="2"
     inkscape:zoom="0.12374369"
     inkscape:cx="-1165.815"
     inkscape:cy="2153.2118"
     inkscape:document-units="mm"
     inkscape:current-layer="layer1"
     inkscape:document-rotation="0"
     showgrid="false"
     inkscape:window-width="1267"
     inkscape:window-height="1198"
     inkscape:window-x="405"
     inkscape:window-y="139"
     inkscape:window-maximized="0"
     showguides="false" />
  <metadata
     id="metadata5">
    <rdf:RDF>
      <cc:Work
         rdf:about="">
        <dc:format>image/svg+xml</dc:format>
        <dc:type
           rdf:resource="http://purl.org/dc/dcmitype/StillImage" />
        <dc:title></dc:title>
      </cc:Work>
    </rdf:RDF>
  </metadata>
  <g
     inkscape:label="Layer 1"
     inkscape:groupmode="layer"
     id="layer1">
    <path
       style="fill:#010101;fill-opacity:1;stroke:none;stroke-width:0.357985px;stroke-linecap:butt;stroke-linejoin:miter;stroke-opacity:1"
       d="m -0.61172273,47.004586 c 0,0 -1.91499997,-15.5378 2.01990003,-23.11112 4.1678,-8.02146 14.6258997,-16.24412 14.6258997,-16.24412 0,0 -10.7501997,21.04357 -3.4225,40.17 0.9418,2.45838 -7.9894997,178.179394 -11.5307997,177.361114 -3.5413,-0.81828 -1.69250003,-178.175874 -1.69250003,-178.175874 z"
       id="path847"
       sodipodi:nodetypes="cscssc" />
    <path
       style="fill:#010101;fill-opacity:1;stroke:none;stroke-width:0.357985px;stroke-linecap:butt;stroke-linejoin:miter;stroke-opacity:1"
       d="m 10.369377,63.889436 c 0,0 -1.9149997,-15.5378 2.0199,-23.11112 4.1677,-8.02148 11.1739,-16.62767 11.1739,-16.62767 0,0 -5.1247,20.53215 0.029,40.55356 1.3127,5.09901 -13.2233,-0.81477 -13.2233,-0.81477 z"
       id="path847-9"
       sodipodi:nodetypes="cscsc" />
    <path
       style="fill:#010101;fill-opacity:1;stroke:none;stroke-width:0.357985px;stroke-linecap:butt;stroke-linejoin:miter;stroke-opacity:1"
       d="m 21.235177,74.127516 c 0,0 -1.915,-13.87575 2.0199,-21.44907 4.1677,-8.02148 10.7903,-10.87434 10.7903,-10.87434 0,0 10.729,16.95231 0.4131,33.13814 -2.8299,4.44015 -13.2233,-0.81473 -13.2233,-0.81473 z"
       id="path847-9-5"
       sodipodi:nodetypes="cscscc" />
    <path
       style="fill:#010101;fill-opacity:1;stroke:none;stroke-width:0.357985px;stroke-linecap:butt;stroke-linejoin:miter;stroke-opacity:1"
       d="m 32.716777,81.744396 c 0,0 -1.9149,-13.87573 2.02,-21.44908 4.1677,-8.02147 10.7903,-10.87432 10.7903,-10.87432 0,0 10.729,16.95231 0.413,33.13816 -2.8298,4.44014 -13.2233,-0.81476 -13.2233,-0.81476 z"
       id="path847-9-5-4"
       sodipodi:nodetypes="cscscc" />
    <path
       style="fill:#010101;fill-opacity:1;stroke:none;stroke-width:0.357985px;stroke-linecap:butt;stroke-linejoin:miter;stroke-opacity:1"
       d="m 50.412577,102.78485 c 0,0 -6.904,-5.497652 -1.5342,-29.917414 5.3698,-24.41978 19.8171,-31.83523 19.8171,-31.83523 0,0 -7.6711,30.42886 -3.452,37.71643 4.2191,7.28757 0.7671,18.155012 0.7671,18.155012 z"
       id="path894"
       sodipodi:nodetypes="cscscc" />
    <path
       style="fill:#010101;fill-opacity:1;stroke:none;stroke-width:0.357985px;stroke-linecap:butt;stroke-linejoin:miter;stroke-opacity:1"
       d="m 63.544977,97.928868 c 0,0 1.1156,-29.504772 12.2951,-40.682332 0,0 4.1586,3.61621 9.3117,30.73776 5.3209,28.004764 -21.6068,9.944572 -21.6068,9.944572 z"
       id="path896"
       sodipodi:nodetypes="cssc" />
    <path
       style="fill:#010101;fill-opacity:1;stroke:none;stroke-width:0.357985px;stroke-linecap:butt;stroke-linejoin:miter;stroke-opacity:1"
       d="m 82.631377,94.602308 c 0,0 -3.8085,-23.260522 11.3467,-38.163582 0,0 11.047803,6.1529 12.582103,12.92905 1.5342,6.77618 5.7329,39.042594 5.7329,39.042594 z"
       id="path913"
       sodipodi:nodetypes="ccscc" />
    <path
       style="fill:#010101;fill-opacity:1;stroke:none;stroke-width:0.357985px;stroke-linecap:butt;stroke-linejoin:miter;stroke-opacity:1"
       d="m 211.90128,47.004586 c 0,0 1.915,-15.5378 -2.0199,-23.11112 -4.1678,-8.02146 -14.626,-16.24412 -14.626,-16.24412 0,0 10.7503,21.04359 3.4226,40.17 -0.2355,0.6146 -23.7942,12.82523 -47.1182,30.65482 -11.6619,8.91478 -43.8605,20.210162 -71.755003,13.590672 -24.803,-5.885882 -70.9626997,-43.615582 -70.6108997,-32.070342 0.7036,23.09045 -18.909,255.660504 -18.909,255.660504 47.8910997,38.65257 241.6501027,114.4602 241.0236027,-83.80389 -0.011,-3.63459 -19.4072,-184.846524 -19.4072,-184.846524 z"
       id="path847-97"
       sodipodi:nodetypes="cscssssssc" />
    <path
       style="fill:#010101;fill-opacity:1;stroke:none;stroke-width:0.357985px;stroke-linecap:butt;stroke-linejoin:miter;stroke-opacity:1"
       d="m 200.92018,63.889436 c 0,0 1.915,-15.5378 -2.0199,-23.11112 -4.1678,-8.02148 -11.1739,-16.62767 -11.1739,-16.62767 0,0 5.1247,20.53215 -0.03,40.55356 -1.3127,5.09901 13.2233,-0.81477 13.2233,-0.81477 z"
       id="path847-9-9"
       sodipodi:nodetypes="cscsc" />
    <path
       style="fill:#010101;fill-opacity:1;stroke:none;stroke-width:0.357985px;stroke-linecap:butt;stroke-linejoin:miter;stroke-opacity:1"
       d="m 190.05438,74.127516 c 0,0 1.915,-13.87575 -2.0199,-21.44907 -4.1677,-8.02148 -10.7903,-10.87434 -10.7903,-10.87434 0,0 -10.729,16.95231 -0.4131,33.13814 2.8299,4.44015 13.2233,-0.81473 13.2233,-0.81473 z"
       id="path847-9-5-8"
       sodipodi:nodetypes="cscscc" />
    <path
       style="fill:#010101;fill-opacity:1;stroke:none;stroke-width:0.357985px;stroke-linecap:butt;stroke-linejoin:miter;stroke-opacity:1"
       d="m 178.57278,81.744396 c 0,0 1.9149,-13.87573 -2.02,-21.44908 -4.1677,-8.02147 -10.7903,-10.87432 -10.7903,-10.87432 0,0 -10.729,16.95231 -0.413,33.13816 2.8299,4.44014 13.2233,-0.81476 13.2233,-0.81476 z"
       id="path847-9-5-4-5"
       sodipodi:nodetypes="cscscc" />
    <path
       style="fill:#010101;fill-opacity:1;stroke:none;stroke-width:0.357985px;stroke-linecap:butt;stroke-linejoin:miter;stroke-opacity:1"
       d="m 160.87698,102.78485 c 0,0 6.904,-5.497652 1.5342,-29.917414 -5.3698,-24.41978 -19.8171,-31.83523 -19.8171,-31.83523 0,0 7.6711,30.42886 3.452,37.71643 -4.2191,7.28757 -0.7671,18.155012 -0.7671,18.155012 z"
       id="path894-2"
       sodipodi:nodetypes="cscscc" />
    <path
       style="fill:#010101;fill-opacity:1;stroke:none;stroke-width:0.357985px;stroke-linecap:butt;stroke-linejoin:miter;stroke-opacity:1"
       d="m 147.74458,97.928868 c 0,0 -1.1156,-29.504772 -12.2951,-40.682332 0,0 -4.1586,3.61621 -9.3117,30.73776 -5.3209,28.004764 21.6068,9.944572 21.6068,9.944572 z"
       id="path896-9"
       sodipodi:nodetypes="cssc" />
    <path
       style="fill:#010101;fill-opacity:1;stroke:none;stroke-width:0.357985px;stroke-linecap:butt;stroke-linejoin:miter;stroke-opacity:1"
       d="m 128.65818,94.602308 c 0,0 3.8085,-23.260522 -11.3467,-38.163582 0,0 -9.2579,4.87437 -10.7921,11.65054 -1.5342,6.77616 -0.8746,34.951304 -0.8746,34.951304 z"
       id="path913-2"
       sodipodi:nodetypes="ccscc" />
    <rect
       style="fill:#ff0000;fill-opacity:1;stroke:none;stroke-width:2.36846;stroke-linecap:round;stroke-linejoin:bevel;stroke-opacity:1"
       id="rect990"
       width="418.00952"
       height="1168.5023"
       x="-707.15436"
       y="113.9819" />
    <path
       style="fill:#ff0000;fill-opacity:1;stroke:none;stroke-width:0.264583px;stroke-linecap:butt;stroke-linejoin:miter;stroke-opacity:1"
       d="m -499.09626,52.874069 c 0,0 -8.21915,-17.198871 -66.58405,-16.40493 -64.33999,0.87522 -68.18576,95.444551 -68.18576,95.444551 l 260.80357,-1.13393 -0.97737,-72.815093 c 0,0 -1.49745,-21.746691 -55.71446,-21.619665 -54.217,0.127025 -69.34193,16.529067 -69.34193,16.529067 z"
       id="path994"
       sodipodi:nodetypes="csccczc" />
    <rect
       style="fill:#000000;fill-opacity:1;stroke:none;stroke-width:0.665001;stroke-linecap:round;stroke-linejoin:bevel;stroke-miterlimit:4;stroke-dasharray:none;stroke-opacity:1"
       id="rect1020"
       width="322.86157"
       height="994.24268"
       x="-21.381561"
       y="145.39462" />
  </g>
</svg>
