<?xml version="1.0" encoding="UTF-8" standalone="no"?>
<svg
   xmlns:dc="http://purl.org/dc/elements/1.1/"
   xmlns:cc="http://creativecommons.org/ns#"
   xmlns:rdf="http://www.w3.org/1999/02/22-rdf-syntax-ns#"
   xmlns:svg="http://www.w3.org/2000/svg"
   xmlns="http://www.w3.org/2000/svg"
   xmlns:sodipodi="http://sodipodi.sourceforge.net/DTD/sodipodi-0.dtd"
   xmlns:inkscape="http://www.inkscape.org/namespaces/inkscape"
   width="210mm"
   height="1000mm"
   viewBox="0 0 210 1000"
   version="1.1"
   id="svg8"
   inkscape:version="1.0.1 (3bc2e813f5, 2020-09-07)"
   sodipodi:docname="tongue.svg">
  <defs
     id="defs2" />
  <sodipodi:namedview
     id="base"
     pagecolor="#ffffff"
     bordercolor="#666666"
     borderopacity="1.0"
     inkscape:pageopacity="0.0"
     inkscape:pageshadow="2"
     inkscape:zoom="0.49497475"
     inkscape:cx="60.822819"
     inkscape:cy="363.28265"
     inkscape:document-units="mm"
     inkscape:current-layer="layer1"
     inkscape:document-rotation="0"
     showgrid="false"
     inkscape:window-width="1267"
     inkscape:window-height="1198"
     inkscape:window-x="405"
     inkscape:window-y="139"
     inkscape:window-maximized="0"
     showguides="false" />
  <metadata
     id="metadata5">
    <rdf:RDF>
      <cc:Work
         rdf:about="">
        <dc:format>image/svg+xml</dc:format>
        <dc:type
           rdf:resource="http://purl.org/dc/dcmitype/StillImage" />
        <dc:title></dc:title>
      </cc:Work>
    </rdf:RDF>
  </metadata>
  <g
     inkscape:label="Layer 1"
     inkscape:groupmode="layer"
     id="layer1">
    <path
       style="fill:#010101;fill-opacity:1;stroke:none;stroke-width:0.357985px;stroke-linecap:butt;stroke-linejoin:miter;stroke-opacity:1"
       d="m 483.1978,28.861729 c 0,0 -1.915,-15.5378 2.0199,-23.1111201 4.1678,-8.02146 14.6259,-16.2441199 14.6259,-16.2441199 0,0 -10.7502,21.04357 -3.4225,40.17 0.9418,2.45838 -7.9895,178.179391 -11.5308,177.361111 -3.5413,-0.81828 -1.6925,-178.175871 -1.6925,-178.175871 z"
       id="path847"
       sodipodi:nodetypes="cscssc" />
    <path
       style="fill:#010101;fill-opacity:1;stroke:none;stroke-width:0.357985px;stroke-linecap:butt;stroke-linejoin:miter;stroke-opacity:1"
       d="m 494.1789,45.746579 c 0,0 -1.915,-15.5378 2.0199,-23.11112 4.1677,-8.02148 11.1739,-16.6276701 11.1739,-16.6276701 0,0 -5.1247,20.5321501 0.029,40.5535601 1.3127,5.09901 -13.2233,-0.81477 -13.2233,-0.81477 z"
       id="path847-9"
       sodipodi:nodetypes="cscsc" />
    <path
       style="fill:#010101;fill-opacity:1;stroke:none;stroke-width:0.357985px;stroke-linecap:butt;stroke-linejoin:miter;stroke-opacity:1"
       d="m 505.0447,55.984659 c 0,0 -1.915,-13.87575 2.0199,-21.44907 4.1677,-8.02148 10.7903,-10.87434 10.7903,-10.87434 0,0 10.729,16.95231 0.4131,33.13814 -2.8299,4.44015 -13.2233,-0.81473 -13.2233,-0.81473 z"
       id="path847-9-5"
       sodipodi:nodetypes="cscscc" />
    <path
       style="fill:#010101;fill-opacity:1;stroke:none;stroke-width:0.357985px;stroke-linecap:butt;stroke-linejoin:miter;stroke-opacity:1"
       d="m 516.5263,63.601539 c 0,0 -1.9149,-13.87573 2.02,-21.44908 4.1677,-8.02147 10.7903,-10.87432 10.7903,-10.87432 0,0 10.729,16.95231 0.413,33.13816 -2.8298,4.44014 -13.2233,-0.81476 -13.2233,-0.81476 z"
       id="path847-9-5-4"
       sodipodi:nodetypes="cscscc" />
    <path
       style="fill:#010101;fill-opacity:1;stroke:none;stroke-width:0.357985px;stroke-linecap:butt;stroke-linejoin:miter;stroke-opacity:1"
       d="m 534.2221,84.641993 c 0,0 -6.904,-5.497652 -1.5342,-29.917414 5.3698,-24.41978 19.8171,-31.83523 19.8171,-31.83523 0,0 -7.6711,30.42886 -3.452,37.71643 4.2191,7.28757 0.7671,18.155012 0.7671,18.155012 z"
       id="path894"
       sodipodi:nodetypes="cscscc" />
    <path
       style="fill:#010101;fill-opacity:1;stroke:none;stroke-width:0.357985px;stroke-linecap:butt;stroke-linejoin:miter;stroke-opacity:1"
       d="m 547.3545,79.786011 c 0,0 1.1156,-29.504772 12.2951,-40.682332 0,0 4.1586,3.61621 9.3117,30.73776 5.3209,28.004764 -21.6068,9.944572 -21.6068,9.944572 z"
       id="path896"
       sodipodi:nodetypes="cssc" />
    <path
       style="fill:#010101;fill-opacity:1;stroke:none;stroke-width:0.357985px;stroke-linecap:butt;stroke-linejoin:miter;stroke-opacity:1"
       d="m 566.4409,76.459451 c 0,0 -3.8085,-23.260522 11.3467,-38.163582 0,0 11.0478,6.1529 12.5821,12.92905 1.5342,6.77618 5.7329,39.042594 5.7329,39.042594 z"
       id="path913"
       sodipodi:nodetypes="ccscc" />
    <path
       style="fill:#010101;fill-opacity:1;stroke:none;stroke-width:0.357985px;stroke-linecap:butt;stroke-linejoin:miter;stroke-opacity:1"
       d="m 695.7108,28.861729 c 0,0 1.915,-15.5378 -2.0199,-23.1111201 -4.1678,-8.02146 -14.626,-16.2441199 -14.626,-16.2441199 0,0 10.7503,21.04359 3.4226,40.17 -0.2355,0.6146 -23.7942,12.82523 -47.1182,30.65482 -11.6619,8.91478 -43.8605,20.210162 -71.755,13.590672 -24.803,-5.885882 -70.9627,-43.615582 -70.6109,-32.070342 0.7036,23.09045 -18.909,255.660501 -18.909,255.660501 47.8911,38.65257 241.6501,114.4602 241.0236,-83.80389 -0.011,-3.63459 -19.4072,-184.846521 -19.4072,-184.846521 z"
       id="path847-97"
       sodipodi:nodetypes="cscssssssc" />
    <path
       style="fill:#010101;fill-opacity:1;stroke:none;stroke-width:0.357985px;stroke-linecap:butt;stroke-linejoin:miter;stroke-opacity:1"
       d="m 684.7297,45.746579 c 0,0 1.915,-15.5378 -2.0199,-23.11112 -4.1678,-8.02148 -11.1739,-16.6276701 -11.1739,-16.6276701 0,0 5.1247,20.5321501 -0.03,40.5535601 -1.3127,5.09901 13.2233,-0.81477 13.2233,-0.81477 z"
       id="path847-9-9"
       sodipodi:nodetypes="cscsc" />
    <path
       style="fill:#010101;fill-opacity:1;stroke:none;stroke-width:0.357985px;stroke-linecap:butt;stroke-linejoin:miter;stroke-opacity:1"
       d="m 673.8639,55.984659 c 0,0 1.915,-13.87575 -2.0199,-21.44907 -4.1677,-8.02148 -10.7903,-10.87434 -10.7903,-10.87434 0,0 -10.729,16.95231 -0.4131,33.13814 2.8299,4.44015 13.2233,-0.81473 13.2233,-0.81473 z"
       id="path847-9-5-8"
       sodipodi:nodetypes="cscscc" />
    <path
       style="fill:#010101;fill-opacity:1;stroke:none;stroke-width:0.357985px;stroke-linecap:butt;stroke-linejoin:miter;stroke-opacity:1"
       d="m 662.3823,63.601539 c 0,0 1.9149,-13.87573 -2.02,-21.44908 -4.1677,-8.02147 -10.7903,-10.87432 -10.7903,-10.87432 0,0 -10.729,16.95231 -0.413,33.13816 2.8299,4.44014 13.2233,-0.81476 13.2233,-0.81476 z"
       id="path847-9-5-4-5"
       sodipodi:nodetypes="cscscc" />
    <path
       style="fill:#010101;fill-opacity:1;stroke:none;stroke-width:0.357985px;stroke-linecap:butt;stroke-linejoin:miter;stroke-opacity:1"
       d="m 644.6865,84.641993 c 0,0 6.904,-5.497652 1.5342,-29.917414 -5.3698,-24.41978 -19.8171,-31.83523 -19.8171,-31.83523 0,0 7.6711,30.42886 3.452,37.71643 -4.2191,7.28757 -0.7671,18.155012 -0.7671,18.155012 z"
       id="path894-2"
       sodipodi:nodetypes="cscscc" />
    <path
       style="fill:#010101;fill-opacity:1;stroke:none;stroke-width:0.357985px;stroke-linecap:butt;stroke-linejoin:miter;stroke-opacity:1"
       d="m 631.5541,79.786011 c 0,0 -1.1156,-29.504772 -12.2951,-40.682332 0,0 -4.1586,3.61621 -9.3117,30.73776 -5.3209,28.004764 21.6068,9.944572 21.6068,9.944572 z"
       id="path896-9"
       sodipodi:nodetypes="cssc" />
    <path
       style="fill:#010101;fill-opacity:1;stroke:none;stroke-width:0.357985px;stroke-linecap:butt;stroke-linejoin:miter;stroke-opacity:1"
       d="m 612.4677,76.459451 c 0,0 3.8085,-23.260522 -11.3467,-38.163582 0,0 -9.2579,4.87437 -10.7921,11.65054 -1.5342,6.77616 -0.8746,34.951304 -0.8746,34.951304 z"
       id="path913-2"
       sodipodi:nodetypes="ccscc" />
    <rect
       style="fill:#ff0000;fill-opacity:1;stroke:none;stroke-width:2.36846;stroke-linecap:round;stroke-linejoin:bevel;stroke-opacity:1"
       id="rect990"
       width="418.00952"
       height="1168.5023"
       x="-110.48381"
       y="86.248817" />
    <path
       style="fill:#ff0000;fill-opacity:1;stroke:none;stroke-width:0.264583px;stroke-linecap:butt;stroke-linejoin:miter;stroke-opacity:1"
       d="m 97.57428,25.14098 c 0,0 -7.08522,-17.9548233 -62.04834,-18.2948113 C -28.81877,6.4481487 -37.19553,104.1806 -37.19553,104.1806 l 260.80357,-1.13393 -0.97737,-72.815092 c 0,0 -5.65519,-22.5026434 -53.4466,-23.8875223 C 121.39265,4.9591767 97.57428,25.14098 97.57428,25.14098 Z"
       id="path994"
       sodipodi:nodetypes="csccczc" />
    <rect
       style="fill:#000000;fill-opacity:1;stroke:none;stroke-width:0.665001;stroke-linecap:round;stroke-linejoin:bevel;stroke-miterlimit:4;stroke-dasharray:none;stroke-opacity:1"
       id="rect1020"
       width="322.86157"
       height="994.24268"
       x="462.42795"
       y="127.25176" />
  </g>
</svg>
